<svg id="Layer_1" data-name="Layer 1" xmlns="http://www.w3.org/2000/svg" viewBox="0 0 689.59 58.32"><title>section-divider-grey</title><path d="M72.06,659.58C82.46,655.93,88,644.86,82,635,75.41,624,60.26,621.53,48.88,625c-12.35,3.75-22.52,15.25-20.66,28.73,2.11,15.33,22.32,21.18,28.62,23A53.28,53.28,0,0,0,77.5,678.5l590-55c-3.52.15-7.82.35-7.81.4A121.34,121.34,0,0,1,686,625.11c12.77,2.24,26.37,8.61,28.35,23.15,1.84,13.56-8.24,25.12-20.46,28.9-11.27,3.48-26.28,1-32.79-10a16.61,16.61,0,0,1-2.43-9.19c.41-9.89,11.42-15.18,12.25-15.57" transform="translate(-26.5 -622)" fill="none" stroke="#bfc1c9" stroke-miterlimit="10" stroke-width="3"/></svg>