<svg id="Layer_1" data-name="Layer 1" xmlns="http://www.w3.org/2000/svg" viewBox="0 0 844 805"><title>single-twirl</title><path d="M63,609.56C63,302.73,271.69,54,529.11,54,735.05,54,902,253,902,498.44,902,694.81,768.44,854,603.69,854,471.89,854,365,726.65,365,569.56,365,443.88,450.52,342,556,342c84.35,0,152.73,81.5,152.73,182,0,80.44-54.7,145.64-122.18,145.64-54,0-97.75-52.16-97.75-116.51,0-51.48,35-93.21,78.2-93.21,34.55,0,62.56,33.39,62.56,74.57" transform="translate(-60.5 -51.5)" fill="none" stroke="#c99dc4" stroke-miterlimit="10" stroke-width="5"/></svg>